<svg version="1.1" id="Layer_1" xmlns="http://www.w3.org/2000/svg" xmlns:xlink="http://www.w3.org/1999/xlink" x="0px" y="0px"
	 width="100%" viewBox="0 0 464 416" enable-background="new 0 0 464 416" xml:space="preserve">
<path fill="#000000" opacity="1.000000" stroke="none" 
	d="
M357.642609,245.521637 
	C348.063965,269.620667 335.535950,291.554199 317.174957,309.472839 
	C293.612122,332.467957 265.432159,347.749969 233.683884,356.431458 
	C212.188126,362.309448 190.269501,364.332489 168.016281,364.490173 
	C143.507233,364.663788 119.271973,362.425079 95.150909,358.430084 
	C84.317436,356.635803 78.787346,349.498230 76.808823,339.295258 
	C71.067429,309.687744 70.688553,279.832733 72.524826,249.824463 
	C74.423103,218.802689 82.852707,189.674057 96.628288,161.969635 
	C112.821999,129.402039 136.830978,104.540504 168.906921,87.124107 
	C193.578552,73.728058 219.797577,65.740173 247.519424,62.991718 
	C271.206268,60.643311 294.976837,60.811275 318.733490,63.352489 
	C328.148987,64.359642 337.500183,65.815125 346.918701,66.739243 
	C360.053986,68.028030 366.894379,74.616547 369.356506,87.501816 
	C375.371735,118.981873 375.648804,150.715073 373.093842,182.464020 
	C371.354279,204.080338 366.209656,225.075714 357.642609,245.521637 
M168.172974,303.326874 
	C179.604370,314.752747 191.023956,326.190491 202.481720,337.589874 
	C203.961700,339.062317 205.201874,340.663940 207.962906,340.184998 
	C263.036163,330.631073 306.157837,304.114624 331.709045,252.859818 
	C339.981995,236.264572 345.685120,218.741562 348.845551,200.406998 
	C349.411835,197.121796 349.751007,194.596466 347.008698,191.866348 
	C312.411285,157.422729 277.929932,122.862427 243.460388,88.290619 
	C241.561569,86.386169 239.833344,85.598000 236.921661,86.013176 
	C215.708542,89.037933 195.897446,96.153740 177.325745,106.589989 
	C156.300964,118.404732 138.348831,133.701096 125.151138,154.244064 
	C111.211472,175.941956 102.181389,199.469681 97.200081,224.728455 
	C96.218872,229.703857 97.516945,232.656250 100.892693,236.002319 
	C123.257973,258.171051 145.436401,280.528320 168.172974,303.326874 
M95.397491,321.172455 
	C96.106499,325.429596 96.690521,329.712921 97.575951,333.933044 
	C98.035522,336.123444 98.472221,338.277802 101.671928,338.726166 
	C124.083740,341.866730 146.549698,344.103790 169.216507,343.634979 
	C171.765656,343.582245 174.334641,343.389954 175.398102,342.919769 
	C148.032654,315.323700 120.599144,287.658997 93.168655,259.997345 
	C91.158730,279.988159 93.017395,300.143219 95.397491,321.172455 
M353.637085,140.815262 
	C352.629028,125.052109 351.736237,109.284859 348.708557,93.722008 
	C347.966339,89.906754 346.949341,87.778801 342.379639,87.091148 
	C326.734589,84.736885 311.012177,83.330597 295.248169,82.520279 
	C286.701202,82.080940 278.038025,81.521347 270.086792,83.309372 
	C297.479248,110.960556 324.928711,138.669266 352.572845,166.574493 
	C354.110046,158.285080 353.600555,150.009033 353.637085,140.815262 
z"/>
<path fill="#000000" opacity="1.000000" stroke="none" 
	d="
M266.593689,201.428650 
	C255.261475,190.102692 244.162857,179.047714 233.112640,167.944534 
	C230.267563,165.085831 227.481110,162.008392 227.800186,157.620041 
	C228.115021,153.290054 230.528320,150.195724 234.533279,148.442612 
	C238.609604,146.658310 242.289444,148.007568 245.111526,150.781860 
	C258.656494,164.097458 272.126740,177.493942 285.374268,191.104294 
	C289.482239,195.324753 289.193695,200.519348 285.638916,204.689926 
	C282.141083,208.793701 277.200928,209.431229 272.165558,206.175995 
	C270.231812,204.925903 268.609497,203.194046 266.593689,201.428650 
z"/>
<path fill="#000000" opacity="1.000000" stroke="none" 
	d="
M214.595093,219.404663 
	C208.697830,213.516220 202.975677,207.950195 197.430099,202.213470 
	C194.383820,199.062210 191.692184,195.569946 193.088943,190.697845 
	C195.454163,182.447586 204.216431,180.182571 210.815491,186.355530 
	C217.125214,192.257812 223.089996,198.528915 229.203827,204.640472 
	C236.023056,211.457138 242.959244,218.162094 249.621399,225.129013 
	C255.619095,231.401031 253.691620,240.304504 245.969925,242.807281 
	C240.987030,244.422348 237.210373,241.871292 233.911148,238.677017 
	C227.462051,232.433014 221.189484,226.006699 214.595093,219.404663 
z"/>
<path fill="#000000" opacity="1.000000" stroke="none" 
	d="
M186.064240,260.935547 
	C178.039688,252.904892 170.218018,245.170502 162.515106,237.319565 
	C159.556229,234.303848 156.987335,230.930878 157.905426,226.272400 
	C159.532455,218.016602 169.012070,214.854263 175.344620,220.950378 
	C188.788147,233.891998 201.916718,247.166855 214.962219,260.512512 
	C219.454971,265.108673 219.354904,270.761688 215.522278,274.907867 
	C212.019653,278.697083 206.562759,279.074829 201.511230,275.586670 
	C195.715576,271.584686 191.465454,265.898560 186.064240,260.935547 
z"/>
</svg>